<svg width="20" height="20" viewBox="0 0 20 20" fill="none" xmlns="http://www.w3.org/2000/svg">
<path d="M4.82843 10.4853L10.4853 4.82843C11.6569 3.65686 13.5563 3.65686 14.7279 4.82843C15.8995 6.00001 15.8995 7.8995 14.7279 9.07107L8.01041 15.7886C7.42462 16.3744 6.47487 16.3744 5.88909 15.7886C5.3033 15.2028 5.3033 14.2531 5.88909 13.6673L11.8995 7.65686C12.0948 7.4616 12.0948 7.14501 11.8995 6.94975C11.7042 6.75449 11.3877 6.75449 11.1924 6.94975L5.18198 12.9602C4.20567 13.9365 4.20567 15.5194 5.18198 16.4957C6.15829 17.472 7.7412 17.472 8.71751 16.4957L15.435 9.77818C16.9971 8.21608 16.9971 5.68342 15.435 4.12133C13.8729 2.55923 11.3403 2.55923 9.77817 4.12133L4.12132 9.77818C3.92606 9.97344 3.92606 10.29 4.12132 10.4853C4.31658 10.6805 4.63317 10.6805 4.82843 10.4853Z" fill="#212121"/>
</svg>
